#N canvas 143 22 1154 700 10;
#X declare -lib iemgui -lib iem_ambi -lib iemlib -lib iemmatrix;
#X declare -lib oscx;
#X declare -lib dumpOSC;
#X obj 455 413 loadbang;
#X obj 489 432 bng 15 250 50 0 empty empty empty 17 7 0 10 -262144
-1 -1;
#X obj 454 449 t b b b;
#X obj 1523 -110 import iemgui iem_ambi iemlib iemmatrix;
#X obj 1334 1253 r \$0-to-GUI;
#X obj 1334 1404 s \$0-from-GUI;
#X obj 1335 1276 cube_sphere 0 60 40 1108 195567 241290 53 73;
#X obj 910 480 r \$0-from-GUI;
#X obj 910 505 route 1;
#X obj 911 528 unpack;
#X obj 1021 518 r \$0-itime;
#X obj 912 587 pack 0 0;
#X obj 911 550 iemlib/speedlim 200;
#X text 1071 658 Signal Inlet;
#N canvas 749 22 450 300 GUI_init 0;
#X obj 121 121 f \$0;
#X obj 117 91 bng 15 250 50 0 empty empty empty 17 7 0 10 -262144 -1
-1;
#X msg 124 144 \; \$1-to-GUI size 120 \; \$1-to-GUI src_font 40 \;
\$1-to-GUI sphere_col 27 \; \$1-to-GUI src_col 1 15;
#X obj 146 93 loadbang;
#X connect 0 0 2 0;
#X connect 1 0 0 0;
#X connect 3 0 0 0;
#X restore 1483 1330 pd GUI_init;
#X text 1165 560 initialize argument1: interpolation time in (ms);
#X obj 670 774 dac~ 1 2 3 4 5 6 7 8 9 10 11 12;
#X obj 491 523 list prepend real_ls;
#X obj 492 550 list trim;
#X msg 476 576 begin_pseudo_inverse;
#X msg 464 599 end_pseudo_inverse;
#X text 61 -107 Decoder:;
#X text 114 -108 1stArg: ambi order;
#X text 113 -94 2ndArg: 3D;
#X text 114 -80 3rdArg: Nr of actual loudspeakers;
#X text 113 -66 4thArg: Nr of phantom loudspeakers;
#X obj 2005 755 osc~;
#X floatatom 2005 734 5 0 0 0 - - -;
#X obj 912 638 ambi_encode 3;
#X obj 911 745 mtx_mul~ 16 16 0 ------------------------------------------
;
#X obj 493 642 ambi_decode3 3 3 16 4;
#X obj 494 710 print;
#X obj 492 670 round_zero 1e-06;
#X obj 1034 548 iemlib/speedlim 200;
#X obj 875 623 print;
#X floatatom 2046 733 5 0 0 0 - - -;
#X obj 2046 755 * 0.01;
#X msg 2046 712 34;
#X obj 1898 660 bng 15 250 50 0 empty empty empty 0 -6 0 8 -262144
-1 -1;
#X msg 1878 721 1;
#X msg 1879 702 0;
#X obj 1879 683 bangbang;
#X obj 1876 762 readsf~ 1;
#X obj 1878 660 tgl 15 0 empty empty empty 17 7 0 10 -262144 -1 -1
1 1;
#X obj 1876 784 *~ 0.2;
#X obj 2031 774 *~;
#X obj 587 1164 vu 15 120 empty empty -1 -8 0 10 -66577 -1 1 0;
#X obj 803 804 pvu~;
#X obj 979 1159 vu 15 120 empty empty -1 -8 0 10 -66577 -1 1 0;
#X obj 849 804 pvu~;
#X obj 982 1460 vu 15 120 empty empty -1 -8 0 10 -66577 -1 1 0;
#X obj 589 1461 vu 15 120 empty empty -1 -8 0 10 -66577 -1 1 0;
#X obj 899 805 pvu~;
#X obj 945 805 pvu~;
#X obj 775 1018 vu 15 120 empty empty -1 -8 0 10 -66577 -1 1 0;
#X obj 992 804 pvu~;
#X obj 453 1305 vu 15 120 empty empty -1 -8 0 10 -66577 -1 1 0;
#X obj 1038 804 pvu~;
#X obj 774 1604 vu 15 120 empty empty -1 -8 0 10 -66577 -1 1 0;
#X obj 1120 1294 vu 15 120 empty empty -1 -8 0 10 -66577 -1 1 0;
#X obj 1088 805 pvu~;
#X obj 1134 805 pvu~;
#X obj 841 1019 vu 15 120 empty empty -1 -8 0 10 -66577 -1 1 0;
#X obj 509 1302 vu 15 120 empty empty -1 -8 0 10 -66577 -1 1 0;
#X obj 840 1601 vu 15 120 empty empty -1 -8 0 10 -66577 -1 1 0;
#X obj 1068 1295 vu 15 120 empty empty -1 -8 0 10 -66577 -1 1 0;
#X obj 1182 804 pvu~;
#X obj 1228 804 pvu~;
#X obj 1278 805 pvu~;
#X obj 1324 805 pvu~;
#X text 584 1290 1 LF 0;
#X text 973 1283 2 RF 0;
#X text 772 1148 5 FC 45;
#X text 451 1431 6 L 45;
#X text 770 1729 7 BC 45;
#X text 1111 1419 8 R 45;
#X text 672 1381 Description Vu Meter Speaker placemnt: 1st Speaker
Number :2nd Speaker Position: 3rd Height in Degrees;
#X text 979 1586 3 BR 0;
#X text 587 1587 4 BL 0;
#X obj 1522 -84 import oscx;
#X obj 2070 1226 unpack f f f;
#X floatatom 2072 1246 5 0 0 0 - - -;
#X floatatom 2070 1264 5 0 0 0 - - -;
#X floatatom 2069 1284 5 0 0 0 - - -;
#X obj 1705 1222 unpack f f f;
#X floatatom 1707 1248 5 0 0 0 - - -;
#X floatatom 1705 1267 5 0 0 0 - - -;
#X floatatom 1704 1286 5 0 0 0 - - -;
#X obj 1992 1226 unpack f f f;
#X floatatom 1992 1249 5 0 0 0 - - -;
#X floatatom 1991 1269 5 0 0 0 - - -;
#X floatatom 1989 1287 5 0 0 0 - - -;
#X obj 1786 1223 unpack f f f;
#X floatatom 1786 1246 5 0 0 0 - - -;
#X floatatom 1785 1266 5 0 0 0 - - -;
#X floatatom 1783 1284 5 0 0 0 - - -;
#X obj 1932 1502 unpack f f f;
#X floatatom 1932 1528 5 0 0 0 - - -;
#X floatatom 1931 1548 5 0 0 0 - - -;
#X floatatom 1929 1566 5 0 0 0 - - -;
#X obj 1841 1503 unpack f f f;
#X floatatom 1841 1525 5 0 0 0 - - -;
#X floatatom 1840 1545 5 0 0 0 - - -;
#X floatatom 1838 1563 5 0 0 0 - - -;
#X obj 1934 1396 unpack f f f;
#X floatatom 1934 1428 5 0 0 0 - - -;
#X floatatom 1933 1448 5 0 0 0 - - -;
#X floatatom 1935 1476 5 0 0 0 - - -;
#X obj 1841 1396 unpack f f f;
#X floatatom 1841 1428 5 0 0 0 - - -;
#X floatatom 1840 1448 5 0 0 0 - - -;
#X floatatom 1842 1476 5 0 0 0 - - -;
#X obj 1885 1193 unpack f f f;
#X floatatom 1886 1215 5 0 0 0 - - -;
#X floatatom 1885 1235 5 0 0 0 - - -;
#X floatatom 1883 1253 5 0 0 0 - - -;
#X obj 1886 1276 unpack f f f;
#X floatatom 1886 1308 5 0 0 0 - - -;
#X floatatom 1885 1328 5 0 0 0 - - -;
#X floatatom 1888 1346 5 0 0 0 - - -;
#X text 1677 1336 Left Hand;
#X text 1774 1331 Left Elbow;
#X text 2080 1324 Right Hand;
#X text 1980 1312 Right Elbow;
#X text 1816 1232 Head;
#X text 1928 1311 Torso;
#X text 1875 1427 Left Knee;
#X text 1834 1584 Left Foot;
#X text 1976 1449 Right Knee;
#X text 1927 1584 Right Foot;
#X obj 1777 1082 route /righthand_pos_screen /lefthand_pos_screen /rightelbow_pos_screen
/leftelbow_pos_screen /rightfoot_pos_screen /leftfoot_pos_screen /rightknee_pos_screen
/leftknee_pos_screen /head_pos_screen /torso_pos_screen;
#X obj 727 282 pack;
#X obj 728 250 t b f;
#X floatatom 727 207 5 0 90 0 - - -;
#X floatatom 818 198 5 -720 720 0 - - -;
#X msg 694 303 \; to_GUI src_dp 1 \$1 \$2;
#X floatatom 772 228 5 0 90 0 - - -;
#X floatatom 837 229 5 -720 720 0 - - -;
#X obj 833 307 s from_GUI;
#X obj 783 280 pack 1 0 0;
#X obj 783 253 bang;
#X msg 862 197 set \$1;
#X obj 728 -32 vsl 15 128 0.4 0.6 0 0 empty empty empty 0 0 0 10 -262144
-1 -1 12700 1;
#X obj 1099 -46 vsl 15 128 0.6 0.1 0 0 empty empty empty 0 0 0 10 -262144
-1 -1 12700 1;
#X obj 727 186 hid/hid_invert;
#X obj 1332 1450 unpack 0 0 0;
#X floatatom 1332 1483 5 0 0 0 - - -;
#X floatatom 1366 1483 5 0 0 0 - - -;
#X floatatom 1402 1510 5 0 0 0 - - -;
#X obj 1401 1482 hid/hid_invert;
#X floatatom 1426 1457 5 0 0 0 - - -;
#X floatatom 1461 1457 5 0 0 0 - - -;
#X obj 1426 1435 unpack;
#X text 1467 1434 source 1;
#X obj 1426 1411 route 1;
#X obj 1334 1424 s from_GUI;
#X obj 1334 1228 r to_GUI;
#X obj 910 454 r from_GUI;
#X msg 2080 711 0;
#X obj 2321 1127 tgl 15 0 empty empty empty 17 7 0 10 -262144 -1 -1
1 1;
#X obj 2321 1174 bng 15 250 50 0 empty empty empty 17 7 0 10 -262144
-1 -1;
#X obj 2321 1101 loadbang;
#X obj 2321 1149 metro 500;
#X msg 2220 1351 disconnect;
#X obj 2174 1391 tgl 15 0 empty empty Connected 20 8 0 8 -262144 -4160
-1 1 1;
#X obj 2176 1370 mrpeach/udpsend;
#X obj 2148 1312 loadbang;
#X obj 2177 1282 mrpeach/packOSC;
#X msg 2148 1334 connect 127.0.0.1 12346;
#X msg 2321 1201 send /righthand_trackjointpos 3;
#X msg 2321 1223 send /lefthand_trackjointpos 3;
#X msg 2321 1245 send /rightelbow_trackjointpos 3;
#X msg 2321 1267 send /leftelbow_trackjointpos 3;
#X msg 2321 1289 send /rightfoot_trackjointpos 3;
#X msg 2321 1313 send /leftfoot_trackjointpos 3;
#X msg 2321 1333 send /rightknee_trackjointpos 3;
#X msg 2321 1355 send /leftknee_trackjointpos 3;
#X msg 2321 1377 send /head_trackjointpos 3;
#X msg 2321 1398 send /torso_trackjointpos 3;
#X msg 2321 1421 send /leftshoulder_trackjointpos 3;
#X msg 2321 1443 send /rightshoulder_trackjointpos 3;
#X obj 1099 95 hid/hid_invert;
#X obj 1131 11 / 4000;
#X floatatom 1132 63 5 0 0 0 - - -;
#X obj 1099 147 + 36;
#X obj 1131 36 * 3;
#X obj 1099 120 * 360;
#X obj 1131 -15 - 1000;
#X obj 2069 1305 s RE;
#X obj 1131 -52 r RE;
#X obj 966 -43 vsl 15 128 0.6 0.1 0 0 empty empty empty 0 0 0 10 -262144
-1 -1 12700 1;
#X obj 991 4 / 4000;
#X floatatom 992 56 5 0 0 0 - - -;
#X obj 991 29 * 3;
#X obj 991 -17 - 1000;
#X obj 991 -45 r LE;
#X obj 1704 1310 s LE;
#X obj 1042 31 spigot;
#X floatatom 1042 9 5 0 0 0 - - -;
#X obj 1042 55 tgl 15 0 empty empty empty 17 7 0 10 -262144 -1 -1 608.828
608.828;
#X obj 1181 30 spigot;
#X floatatom 1181 8 5 0 0 0 - - -;
#X obj 1181 52 tgl 15 0 empty empty empty 17 7 0 10 -262144 -1 -1 563.921
563.921;
#X obj 966 98 * 360;
#X obj 965 122 - 36;
#X obj 1180 -14 < 420;
#X obj 1042 -17 < 420;
#X obj 753 33 / 2250;
#X obj 752 84 hid/hid_invert;
#X obj 753 9 -450;
#X obj 753 59 * 3;
#X obj 753 -14 spigot;
#X floatatom 753 -36 5 0 0 0 - - -;
#X obj 753 -62 < 420;
#X obj 859 36 / 2250;
#X obj 858 87 hid/hid_invert;
#X obj 859 12 -450;
#X obj 859 62 * 3;
#X obj 859 -11 spigot;
#X floatatom 859 -33 5 0 0 0 - - -;
#X obj 859 -59 < 420;
#X obj 1496 745 tgl 15 0 empty empty empty 17 7 0 10 -262144 -1 -1
1 1;
#X obj 1485 779 pink~;
#X msg 1631 73 devices;
#X msg 1692 74 open 6;
#X obj 1658 102 comport 9600;
#X text 1611 267 1;
#X text 1747 239 3;
#X obj 1595 327 spigot;
#X floatatom 1594 305 5 0 0 0 - - -;
#X obj 1658 331 spigot;
#X floatatom 1657 307 5 0 0 0 - - -;
#X obj 1784 311 spigot;
#X floatatom 1789 283 5 0 0 0 - - -;
#X obj 1648 444 hradio 15 1 0 5 empty empty empty 0 -8 0 10 -262144
-1 -1 0;
#X obj 1645 402 f;
#X obj 1673 402 + 1;
#X obj 1668 497 tgl 15 0 empty empty empty 17 7 0 10 -262144 -1 -1
0 1;
#X obj 1644 496 tgl 15 0 empty empty empty 17 7 0 10 -262144 -1 -1
0 1;
#X obj 1657 378 s Pink;
#X obj 1479 593 r Pink;
#X obj 1663 1264 s LE1;
#X obj 804 -60 r LE1;
#X obj 806 -35 r LE1;
#X obj 1043 -48 r LE1;
#X obj 2109 1265 s RE1;
#X obj 908 -34 r RE1;
#X obj 907 -60 r RE1;
#X obj 1181 -48 r RE1;
#X obj 1257 633 f \$1;
#X obj 1257 597 loadbang;
#X obj 1272 615 bng 15 250 50 0 empty empty empty 17 7 0 10 -262144
-1 -1;
#X obj 1257 653 sel 0;
#X msg 1257 674 200;
#X text 1232 664 std:;
#X text 919 617 3nd order Ambisonics Encode;
#X obj 912 667 mtx 16 1;
#N canvas 52 217 1174 701 volume 0;
#X obj -77 -315 inlet~;
#X obj -81 -260 outlet~;
#X obj -19 -316 inlet~;
#X obj -23 -261 outlet~;
#X obj 39 -316 inlet~;
#X obj 35 -261 outlet~;
#X obj 97 -317 inlet~;
#X obj 93 -262 outlet~;
#X obj 157 -318 inlet~;
#X obj 153 -263 outlet~;
#X obj 157 -289 *~ 0.707;
#X obj 215 -319 inlet~;
#X obj 211 -264 outlet~;
#X obj 279 -321 inlet~;
#X obj 275 -266 outlet~;
#X obj 279 -292 *~ 0.707;
#X obj 337 -322 inlet~;
#X obj 333 -267 outlet~;
#X obj 337 -293 *~ 0.707;
#X obj 395 -322 inlet~;
#X obj 391 -267 outlet~;
#X obj 395 -293 *~ 0.707;
#X obj 453 -323 inlet~;
#X obj 449 -268 outlet~;
#X obj 453 -294 *~ 0.707;
#X obj 513 -324 inlet~;
#X obj 509 -269 outlet~;
#X obj 513 -295 *~ 0.707;
#X obj 571 -325 inlet~;
#X obj 567 -270 outlet~;
#X obj 571 -296 *~ 0.707;
#X obj 638 -330 inlet;
#X obj 215 -290 *~ 0.707;
#X obj -77 -286 *~ 0.707;
#X obj -19 -287 *~ 0.707;
#X obj 39 -287 *~ 0.707;
#X obj 97 -288 *~ 0.707;
#X text 110 -227 Signal from matrix ouput multiplied by 0.707 as W=
0.707 Multiplication of the channel is controlled with the Volume slider.
;
#X connect 0 0 33 0;
#X connect 2 0 34 0;
#X connect 4 0 35 0;
#X connect 6 0 36 0;
#X connect 8 0 10 0;
#X connect 10 0 9 0;
#X connect 11 0 32 0;
#X connect 13 0 15 0;
#X connect 15 0 14 0;
#X connect 16 0 18 0;
#X connect 18 0 17 0;
#X connect 19 0 21 0;
#X connect 21 0 20 0;
#X connect 22 0 24 0;
#X connect 24 0 23 0;
#X connect 25 0 27 0;
#X connect 27 0 26 0;
#X connect 28 0 30 0;
#X connect 30 0 29 0;
#X connect 31 0 10 1;
#X connect 31 0 15 1;
#X connect 31 0 18 1;
#X connect 31 0 21 1;
#X connect 31 0 24 1;
#X connect 31 0 27 1;
#X connect 31 0 30 1;
#X connect 31 0 32 1;
#X connect 31 0 33 1;
#X connect 31 0 34 1;
#X connect 31 0 35 1;
#X connect 31 0 36 1;
#X connect 32 0 12 0;
#X connect 33 0 1 0;
#X connect 34 0 3 0;
#X connect 35 0 5 0;
#X connect 36 0 7 0;
#X restore 526 749 pd volume --------------------;
#X obj 1338 620 vsl 15 128 0.01 1 1 0 empty empty empty 0 -9 0 10 -262144
-1 -1 200 1;
#X text 1361 625 1;
#X text 1361 686 0.5;
#X text 1358 745 0;
#X text 1324 638 V;
#X text 1324 666 l;
#X text 1324 679 u;
#X text 1324 692 m;
#X text 1324 704 e;
#X text 1324 652 o;
#X floatatom 1270 -13 5 0 0 0 - - -;
#X floatatom 1269 -60 5 0 0 0 - - -;
#X obj 1270 -37 * 0.001;
#X obj 1325 13 f;
#X obj 1357 13 + 1;
#X obj 1313 36 print;
#X obj 1245 -60 vsl 15 128 1 0.01 0 0 empty empty empty 0 0 0 10 -262144
-1 -1 4182 1;
#X obj 1356 36 mod 1000;
#X obj 1324 -36 tgl 15 0 empty empty empty 17 7 0 10 -262144 -1 -1
1 1;
#X obj 1325 -13 metro 15;
#X obj 641 49 f;
#X obj 673 49 + 1;
#X obj 629 72 print;
#X obj 641 0 tgl 15 0 empty empty empty 17 7 0 10 -262144 -1 -1 0 1
;
#X obj 672 72 mod 90;
#X obj 641 23 metro 50;
#X obj 1080 188 hid/hid_invert;
#X obj 1080 240 + 36;
#X obj 1080 213 * 360;
#X symbolatom 1256 72 10 0 0 0 - - -;
#X obj 720 108 * 150;
#X obj 720 136 - 90;
#X obj 720 158 * 3;
#X msg 1877 741 open Eagle.wav;
#X obj 1524 779 * 0.1;
#X obj 1485 802 *~ 0.01;
#X obj 2209 744 osc~;
#X obj 2253 742 osc~;
#X obj 2253 717 * 2;
#X obj 2304 742 osc~;
#X obj 2372 741 osc~;
#X obj 2372 717 * 1.5;
#X obj 2418 740 osc~;
#X obj 2304 717 * 1.2;
#X floatatom 2207 690 5 0 0 0 - - -;
#X obj 2259 846 line;
#X text 2260 804 attack;
#X text 2317 805 decay;
#X msg 2318 824 0 500;
#X obj 2209 717 mtof;
#X obj 2418 719 * 1.888;
#X msg 2259 823 0.8 1000;
#X obj 2228 877 freeverb~;
#X msg 2375 842 damping 0.68;
#X msg 2404 879 wet 0.6;
#X msg 2405 899 dry 0.2;
#X msg 2369 822 roomsize 0.91;
#X msg 2385 859 width 0.85;
#X obj 1053 437 r~ pinknoise;
#X obj 1485 822 s~ pinknoise;
#X msg 2004 712 329.6;
#X obj 2031 795 s~ E4sine;
#X text 2084 688 off;
#X text 2006 688 Freq Note E4;
#X obj 1133 438 r~ Eagle Wings;
#X obj 1874 808 s~ Eagle wings;
#X obj 230 828 vu 15 120 empty empty -1 -8 0 10 -66577 -1 1 0;
#X obj 229 802 pvu~;
#X obj 276 828 vu 15 120 empty empty -1 -8 0 10 -66577 -1 1 0;
#X obj 275 802 pvu~;
#X obj 324 828 vu 15 120 empty empty -1 -8 0 10 -66577 -1 1 0;
#X obj 370 828 vu 15 120 empty empty -1 -8 0 10 -66577 -1 1 0;
#X obj 325 803 pvu~;
#X obj 371 803 pvu~;
#X obj 419 828 vu 15 120 empty empty -1 -8 0 10 -66577 -1 1 0;
#X obj 418 802 pvu~;
#X obj 465 828 vu 15 120 empty empty -1 -8 0 10 -66577 -1 1 0;
#X obj 464 802 pvu~;
#X obj 513 828 vu 15 120 empty empty -1 -8 0 10 -66577 -1 1 0;
#X obj 559 828 vu 15 120 empty empty -1 -8 0 10 -66577 -1 1 0;
#X obj 514 803 pvu~;
#X obj 560 803 pvu~;
#X obj 609 827 vu 15 120 empty empty -1 -8 0 10 -66577 -1 1 0;
#X obj 655 827 vu 15 120 empty empty -1 -8 0 10 -66577 -1 1 0;
#X obj 703 827 vu 15 120 empty empty -1 -8 0 10 -66577 -1 1 0;
#X obj 749 827 vu 15 120 empty empty -1 -8 0 10 -66577 -1 1 0;
#X obj 608 802 pvu~;
#X obj 654 802 pvu~;
#X obj 704 803 pvu~;
#X obj 750 803 pvu~;
#X text 228 955 1 LF 0;
#X text 273 954 2 RF 0;
#X text 415 954 5 FC 45;
#X text 463 954 6 L 45;
#X text 509 953 7 BC 45;
#X text 557 953 8 R 45;
#X text 606 953 9 FC 45;
#X text 651 952 10 L 45;
#X text 697 952 11 BC 45;
#X text 748 952 12 R 45;
#X text 227 973 Description Vu Meter Speaker placemnt: 1st Speaker
Number :2nd Speaker Position: 3rd Height in Degrees;
#X text 321 954 3 BR 0;
#X text 368 954 4 BL 0;
#X text 742 1315 ORIGINAL OUTPUT SIGNAL;
#X text 580 972 REFERENCE SIGNAL Before Volume control;
#X obj 2209 771 *~ 0.1;
#X obj 2253 766 *~ 0.15;
#X obj 2304 767 *~ 0.15;
#X obj 2372 764 *~ 0.2;
#X obj 2418 761 *~ 0.15;
#X obj 2182 695 vsl 15 128 0 10 0 0 empty empty empty 0 -9 0 10 -262144
-1 -1 0 1;
#X obj 2500 745 osc~;
#X obj 2544 743 osc~;
#X obj 2544 718 * 2;
#X obj 2595 743 osc~;
#X obj 2663 742 osc~;
#X obj 2663 718 * 1.5;
#X obj 2709 741 osc~;
#X obj 2595 718 * 1.2;
#X floatatom 2498 687 5 0 0 0 - - -;
#X obj 2550 847 line;
#X text 2551 805 attack;
#X text 2608 806 decay;
#X msg 2609 825 0 500;
#X obj 2500 718 mtof;
#X obj 2709 720 * 1.888;
#X msg 2550 824 0.8 1000;
#X obj 2501 810 *~;
#X obj 2500 772 *~ 0.1;
#X obj 2544 767 *~ 0.15;
#X obj 2595 768 *~ 0.15;
#X obj 2663 765 *~ 0.2;
#X obj 2709 762 *~ 0.15;
#X obj 2454 663 / 4;
#X obj 2498 655 moses 255;
#X obj 2207 654 moses 255;
#X msg 2258 628 255;
#X msg 2290 629 0;
#X msg 2548 628 255;
#X msg 2580 629 0;
#X obj 1692 495 tgl 15 0 empty empty empty 17 7 0 10 -262144 -1 -1
0 1;
#X obj 1661 422 mod 5;
#X obj 1648 469 route 1 2 3 4 5;
#X obj 1717 496 tgl 15 0 empty empty empty 17 7 0 10 -262144 -1 -1
1 1;
#X msg 1668 806 \; pd dsp 1;
#X msg 1738 805 \; pd dsp 0;
#X text 1742 777 On/Off DSP;
#X obj 1663 717 hradio 15 1 0 3 empty empty empty 0 -8 0 10 -262144
-1 -1 0;
#X obj 1663 675 f;
#X obj 1688 675 + 1;
#X obj 1665 774 tgl 15 0 empty empty empty 17 7 0 10 -262144 -1 -1
1 1;
#X obj 1688 771 tgl 15 0 empty empty empty 17 7 0 10 -262144 -1 -1
1 1;
#X obj 2210 809 *~ 0.9;
#X obj 1676 695 mod 3;
#X obj 1663 742 route 1 2 3;
#X text 2006 667 Test Signal;
#X obj 1604 530 s on/off;
#X obj 1665 529 s off/on;
#X obj 1720 529 s on/on;
#X obj 1777 528 s off/off;
#X obj 2284 580 r on/off;
#X obj 2345 579 r off/on;
#X obj 2400 579 r on/on;
#X obj 2457 578 r off/off;
#X obj 1786 360 s DSP on/off;
#X obj 1663 643 r DSP on/off;
#X obj 2228 908 s~ instr;
#X obj 1227 437 r~ instr;
#X obj 1707 262 s inst;
#X obj 2207 624 r inst;
#X obj 2498 628 r inst;
#X obj 1620 205 route 32;
#X obj 1658 127 sel 13 10;
#X floatatom 1708 230 5 0 0 0 - - -;
#X obj 1708 200 route 32;
#X obj 1782 195 route 32;
#X obj 1562 206 route 32;
#X obj 1563 352 trigger bang;
#X obj 1658 353 trigger bang;
#X obj 1904 1051 dumpOSC 12345;
#X obj 1520 -61 import dumpOSC;
#X msg 1669 40 close;
#X obj 1657 170 route 48 49 50 51;
#X obj 1657 149 serialize 5;
#X floatatom 1568 235 5 0 0 0 - - -;
#X floatatom 1787 220 5 0 0 0 - - -;
#X floatatom 1618 229 5 0 0 0 - - -;
#X text 838 1145 9 FC -45;
#X text 505 1427 10 L -45;
#X text 834 1726 11 BC -45;
#X obj 1783 337 bng 15 250 50 0 empty empty empty 17 7 0 10 -262144
-1 -1;
#X obj 1480 663 hradio 15 1 0 3 empty empty empty 0 -8 0 10 -262144
-1 -1 2;
#X obj 1480 621 f;
#X obj 1505 621 + 1;
#X obj 1482 714 tgl 15 0 empty empty empty 17 7 0 10 -262144 -1 -1
1 1;
#X obj 1505 715 tgl 15 0 empty empty empty 17 7 0 10 -262144 -1 -1
1 1;
#X obj 1493 641 mod 3;
#X obj 1480 688 route 1 2 3;
#X obj 912 697 mtx_mul~ 16 1 200 ----------------------------------------
;
#X text 1053 1420 12 R -45;
#X text 648 563 [1]Decoder;
#X text 33 -107 [1];
#X text 31 236 [2] Encoder:;
#X obj 812 836 s s1;
#X obj 857 834 s s2;
#X obj 903 837 s s3;
#X obj 948 835 s s4;
#X obj 990 834 s s5;
#X obj 1035 832 s s6;
#X obj 1081 835 s s7;
#X obj 1126 833 s s8;
#X obj 1178 830 s s9;
#X obj 1223 828 s s10;
#X obj 1269 831 s s11;
#X obj 1318 830 s s12;
#X obj 588 1127 r s1;
#X obj 977 1134 r s2;
#X obj 977 1430 r s3;
#X obj 588 1424 r s4;
#X obj 773 986 r s5;
#X obj 445 1270 r s6;
#X obj 771 1568 r s7;
#X obj 1119 1257 r s8;
#X obj 839 987 r s9;
#X obj 509 1269 r s10;
#X obj 839 1567 r s11;
#X obj 1065 1253 r s12;
#X text 1142 619 [2]Encoder;
#X text 1630 -72 library imports;
#X text 1393 649 Volume Slider Value 0 - 1;
#X text 116 237 1stArg Ambisonic Order 3 Matrix of 1st argument 16
channels 1 output. Matrix Multiplication 1stArg 16 outputs into mtx_mul~
decoder matrix. 2ndArg Signal Inlet. 3rdArg Interpolation time 200
milliseconds. Input of the decoder caluclates the value's of the Azimut
and Elevation. Onject "pack 0 0 packs the value's of direction given
by the cub sphere. iemlib/speedlim is the speedlimit for the float
message which is 200milliseconds Data from Cube spehere is received
by r from_Gui and r 0$ from Gui and the itime is received. Bothe Value
can be received by the Cube Spehere and the Tracked movements from
the Xbox Kinect.;
#X text 684 -67 [3];
#X text 727 -492 [3];
#X text 753 -490 Data is send from the Kinect implementing the values
for the Elevation and Azimut Angles the Elevotion is from 0 to 90 and
the Azimut is 0 to 360 Elevation Left and Right Hand Value is activated
when < 420 with conditional logic. The Spigot port is Blocked when
0 and active when 1 When 1 Active the Value's are send out from the
Kinect. Value is then subtracted by -450 = the change of value of the
left and right hand. Then Divided by / 2250 then multiplied by 3 Then
the values output is inverted. send into the Vslider with a Value of
0.4 - 0.6 output. Then Multiplied by * 150 \, -90 \, * 3 \, invert
object. to get a Value of 0 - 90 when the left and right hand is moved
Up and Down.;
#X text 752 -267 Azimut Left and Right Hand Value is activated when
< 420 with conditional logic. The Spigot port is Blocked when 0 and
active when 1 When 1 Active the Value's are send out from the Kinect.
Value is then subtracted by -1000 = the change of value of the left
and right hand. Then Divided by / 4000 then multiplied by 3 the Value
is send into the Vslider with a Value of 0.6 - 0.1 output. Then output
value is inverted \, Multiplied by * 360 \, +36 \, * 3 to get a Value
of 0 - 360 when the left and right hand is moved From front to Back
and Down.;
#X text 1325 -84 activate automated Azimut direction;
#X text 547 -28 activate automated Elevation;
#X text 1139 -486 Automated azimut Direction Metro is activated send
out a bang at a rapid speed when set to 15 in to float object set as
a counter with + 1 and modulo 1000 object Data value multipliplied
by 0.001 then send to a Vslider with the value of 1 - 0.01. Then Value
is inverted \, multiplied by 360 with 36 added send to the encoder.
;
#X text 1138 -374 Automated Elevationt Direction Metro is activated
send out a bang at a rapid speed when set to 50 in to float object
set as a counter with + 1 and modulo 90 object Data value send to the
encoder.;
#X text 716 -101 Left- Right Hand Kinect control Elevation;
#X text 973 -87 Left- Right Hand Kinect control Azimut;
#X text 1052 410 Send Receiver Sounds and Instruments;
#X text 1723 31 [5];
#X text 1891 57 [5];
#X text 1532 129 Arduino Sensors;
#X text 1653 256 2;
#X text 1815 239 4;
#X text 1429 854 Pink Noise Speaker Setup Test Signal with selector
Hradio with toggle box same method as in [5] Pink noise is Turned on/off
;
#X text 1663 855 Dssp On/Off Same method as [5] with HRadio DSP is
Turned On/Off;
#X text 1880 847 Sample of Eagle is played For automated Azimuth and
elevation By using readsf~ with message open Eagle.Wav The sample is
played found in the sam folder;
#X text 2295 547 Instrument 1 Instrument 2;
#X text 1921 58 Arduino board and Sensor Connection Message \, Close
\, open 6 \, devices Devices in Pd monitor window a list of devices
is seen 6 is the arduino port Open 6 opens port 6 arduino. Close Closes
the port. Comport 9600 is devices reference back to the arduino boards
software 9600 is the set standard. Serialize 5 routes the 54 sensors
signal value's. Route 48 49 50 51 routes each signals value seperately
conditional logic sets the values output to one or zero for selection
option Pink Noise off/ on DSP off/ on. Spigot opens the port for the
bang. 1 index finger sets the section to instrument with counter and
Hradio set to 5 is routed to toggle box everytime toggle is selected
to the next box the last box is turned off. output 1 instrunment off
\, output 2 instrunment on \, output 3 2 instrunments on \, output
4 2 instrunments off. 2 Middles finger sets Pink noise on/off 3 Ring
finger sets the frequency when the sensor is value is changed from
light to dark;
#X text 113 -49 Message Box Set Speakers Elevation and Azimuth angles
Speaker \, Elevation angle \, Azimut angle List Prepend Real sets dimesion
2D or 3D. Begin and En Pseudo Inverse Ecodes the phantom + Actual speaker
if used with calculation of the Pseudo Inverse The End Pseudo Inverse
outputs the actual speakers where the phantom speaker are ignored.
Round Zero: Rounds the Value's to be output on the monitor screen to
0 Decoder Fed into the Matrix object which calculates the matrix of
the 16 in channels to the 16 out channels \, First inlet for the descoder
to set matrix of the speaker location. By default each order is set
in the matrix and number of speaker with the order highest amount of
speaker in this case 16;
#X text 2313 310 [6]Instrumen 1 and 2 Frequency value is set by by
the sensor on the Ring finger. Frequency value set by moses 255 on
and off by message 255 on and 0 off lets. Value into Midi to frquency
converter. Set to each of the 5 osc~ object Which are multiplied by
*2 \, *1.2 \, * 1.5 \, * 1.888. into the osc~ then signals out multiplied
by *~0.1 \, *~0.15 \, *~0.15 \, *~0.2 \, *~0.15 joint into a multiplication
signal of *~ 0.9fed into freeverb. An Envelope is set with the line
object with attack set to 0 800 and decay 0 500 which the line object
is fed into the *~0.9 object. Freeverb settings are set as seen is
the message boxes ssetting the Roomsize \, Damping \, width \, wet
\, dry. this is the fed in to the encoder signal inlet.;
#X text 2392 659 [6];
#X text 1886 1001 [7] Kinect Router Receiver;
#X text 1809 1642 [7]Kinect Router Receiver. dumpOSC 12345 is the OSC
port set to synapse which receives the skeleton data. Data is routed
for each posistion on the screen example Right Left Hand Data. The
unpack f f f value are unpacked into number floats messages Data is
unpacket by unpack f f f;
#X text 2325 1518 Loadbang startsup the metro object when pd is loaded
Metro object sends out a bang at regular intervals Send / message jskeleton
joint _ trackjointpos 3 where 3 refers back to screen on the Receiver
OSC of kinect. mrpeack/packOSC packs OSC messages send to mr peack/udpsend
send the OSC data back to synapse for each skeleton joint. loadbang
connects 127.0.0.1 12346 on start up which is the port that send back
to OSC to synapse. Port can be disconnected with disconnect message
;
#X text 685 1342 Real Speaker Layout signal path used to simulate the
signals without an actual real speaker array;
#X msg 494 483 1 0 45 \, 2 0 -45 \, 3 0 -135 \, 4 0 135 \, 5 45 0 \,
6 45 -90 \, 7 45 180 \, 8 45 90 \, 9 -45 0 \, 10 -45 -90 \, 11 -45
180 \, 12 -45 90;
#X obj 1657 284 == 4;
#X obj 1593 284 == 168;
#X obj 1789 255 == 0;
#X connect 0 0 2 0;
#X connect 1 0 2 0;
#X connect 2 0 20 0;
#X connect 2 1 19 0;
#X connect 2 2 517 0;
#X connect 4 0 6 0;
#X connect 6 0 5 0;
#X connect 6 0 145 0;
#X connect 6 0 155 0;
#X connect 7 0 8 0;
#X connect 8 0 9 0;
#X connect 9 0 12 0;
#X connect 9 1 33 0;
#X connect 10 0 12 1;
#X connect 10 0 33 1;
#X connect 11 0 28 0;
#X connect 12 0 11 0;
#X connect 17 0 18 0;
#X connect 18 0 30 0;
#X connect 19 0 30 0;
#X connect 20 0 30 0;
#X connect 26 0 45 0;
#X connect 27 0 26 0;
#X connect 28 0 256 0;
#X connect 29 0 47 0;
#X connect 29 0 257 0;
#X connect 29 1 49 0;
#X connect 29 1 257 1;
#X connect 29 2 52 0;
#X connect 29 2 257 2;
#X connect 29 3 53 0;
#X connect 29 3 257 3;
#X connect 29 4 55 0;
#X connect 29 4 257 4;
#X connect 29 5 57 0;
#X connect 29 5 257 5;
#X connect 29 6 60 0;
#X connect 29 6 257 6;
#X connect 29 7 61 0;
#X connect 29 7 257 7;
#X connect 29 8 66 0;
#X connect 29 8 257 8;
#X connect 29 9 67 0;
#X connect 29 9 257 9;
#X connect 29 10 68 0;
#X connect 29 10 257 10;
#X connect 29 11 69 0;
#X connect 29 11 257 11;
#X connect 30 0 29 0;
#X connect 30 0 32 0;
#X connect 33 0 11 1;
#X connect 35 0 36 0;
#X connect 36 0 45 1;
#X connect 37 0 35 0;
#X connect 38 0 41 0;
#X connect 39 0 42 0;
#X connect 40 0 42 0;
#X connect 41 0 39 0;
#X connect 41 1 291 0;
#X connect 42 0 44 0;
#X connect 43 0 41 0;
#X connect 44 0 323 0;
#X connect 45 0 319 0;
#X connect 47 0 461 0;
#X connect 49 0 462 0;
#X connect 52 0 463 0;
#X connect 53 0 464 0;
#X connect 55 0 465 0;
#X connect 57 0 466 0;
#X connect 60 0 467 0;
#X connect 61 0 468 0;
#X connect 66 0 469 0;
#X connect 67 0 470 0;
#X connect 68 0 471 0;
#X connect 69 0 472 0;
#X connect 80 0 81 0;
#X connect 80 1 82 0;
#X connect 80 2 83 0;
#X connect 82 0 245 0;
#X connect 83 0 188 0;
#X connect 84 0 85 0;
#X connect 84 1 86 0;
#X connect 84 2 87 0;
#X connect 86 0 241 0;
#X connect 87 0 196 0;
#X connect 88 0 89 0;
#X connect 88 1 90 0;
#X connect 88 2 91 0;
#X connect 92 0 93 0;
#X connect 92 1 94 0;
#X connect 92 2 95 0;
#X connect 96 0 97 0;
#X connect 96 1 98 0;
#X connect 96 2 99 0;
#X connect 100 0 101 0;
#X connect 100 1 102 0;
#X connect 100 2 103 0;
#X connect 104 0 105 0;
#X connect 104 1 106 0;
#X connect 104 2 107 0;
#X connect 108 0 109 0;
#X connect 108 1 110 0;
#X connect 108 2 111 0;
#X connect 112 0 113 0;
#X connect 112 1 114 0;
#X connect 112 2 115 0;
#X connect 116 0 117 0;
#X connect 116 1 118 0;
#X connect 116 2 119 0;
#X connect 130 0 80 0;
#X connect 130 1 84 0;
#X connect 130 2 88 0;
#X connect 130 3 92 0;
#X connect 130 4 96 0;
#X connect 130 5 100 0;
#X connect 130 6 104 0;
#X connect 130 7 108 0;
#X connect 130 8 112 0;
#X connect 130 9 116 0;
#X connect 131 0 135 0;
#X connect 132 0 131 0;
#X connect 132 1 131 1;
#X connect 133 0 131 0;
#X connect 133 0 136 0;
#X connect 134 0 132 0;
#X connect 134 0 137 0;
#X connect 136 0 140 0;
#X connect 136 0 139 1;
#X connect 137 0 139 2;
#X connect 137 0 140 0;
#X connect 139 0 138 0;
#X connect 140 0 139 0;
#X connect 141 0 134 0;
#X connect 142 0 288 0;
#X connect 143 0 181 0;
#X connect 144 0 133 0;
#X connect 145 0 146 0;
#X connect 145 1 147 0;
#X connect 145 2 149 0;
#X connect 149 0 148 0;
#X connect 151 0 149 0;
#X connect 152 0 150 0;
#X connect 152 1 151 0;
#X connect 154 0 152 0;
#X connect 156 0 6 0;
#X connect 157 0 8 0;
#X connect 158 0 27 0;
#X connect 158 0 35 0;
#X connect 159 0 162 0;
#X connect 160 0 169 0;
#X connect 161 0 159 0;
#X connect 162 0 160 0;
#X connect 163 0 165 0;
#X connect 165 0 164 0;
#X connect 166 0 168 0;
#X connect 167 0 165 0;
#X connect 168 0 165 0;
#X connect 169 0 170 0;
#X connect 169 0 167 0;
#X connect 170 0 171 0;
#X connect 170 0 167 0;
#X connect 171 0 172 0;
#X connect 171 0 167 0;
#X connect 172 0 173 0;
#X connect 172 0 167 0;
#X connect 173 0 174 0;
#X connect 173 0 167 0;
#X connect 174 0 175 0;
#X connect 174 0 167 0;
#X connect 175 0 176 0;
#X connect 175 0 167 0;
#X connect 176 0 177 0;
#X connect 176 0 167 0;
#X connect 177 0 178 0;
#X connect 177 0 167 0;
#X connect 178 0 179 0;
#X connect 178 0 167 0;
#X connect 179 0 180 0;
#X connect 179 0 167 0;
#X connect 180 0 167 0;
#X connect 181 0 186 0;
#X connect 182 0 185 0;
#X connect 184 0 134 0;
#X connect 185 0 183 0;
#X connect 185 0 143 0;
#X connect 186 0 184 0;
#X connect 187 0 182 0;
#X connect 189 0 200 0;
#X connect 190 0 203 0;
#X connect 191 0 193 0;
#X connect 193 0 192 0;
#X connect 193 0 190 0;
#X connect 194 0 191 0;
#X connect 195 0 197 0;
#X connect 197 0 199 0;
#X connect 197 0 194 0;
#X connect 198 0 197 1;
#X connect 200 0 202 0;
#X connect 200 0 187 0;
#X connect 201 0 200 1;
#X connect 203 0 204 0;
#X connect 204 0 134 0;
#X connect 205 0 201 0;
#X connect 206 0 198 0;
#X connect 207 0 210 0;
#X connect 208 0 142 0;
#X connect 209 0 207 0;
#X connect 210 0 208 0;
#X connect 211 0 209 0;
#X connect 212 0 211 1;
#X connect 213 0 212 0;
#X connect 214 0 217 0;
#X connect 215 0 142 0;
#X connect 216 0 214 0;
#X connect 217 0 215 0;
#X connect 218 0 216 0;
#X connect 219 0 218 1;
#X connect 220 0 219 0;
#X connect 221 0 292 0;
#X connect 222 0 293 0;
#X connect 223 0 225 0;
#X connect 224 0 225 0;
#X connect 225 0 430 0;
#X connect 228 0 435 0;
#X connect 229 0 228 1;
#X connect 229 0 228 0;
#X connect 230 0 436 0;
#X connect 231 0 230 1;
#X connect 231 0 230 0;
#X connect 232 0 448 0;
#X connect 233 0 232 1;
#X connect 233 0 232 0;
#X connect 234 0 400 0;
#X connect 235 0 234 0;
#X connect 235 0 236 0;
#X connect 236 0 399 0;
#X connect 237 0 415 0;
#X connect 238 0 414 0;
#X connect 240 0 450 0;
#X connect 242 0 213 0;
#X connect 243 0 211 0;
#X connect 244 0 206 0;
#X connect 246 0 218 0;
#X connect 247 0 220 0;
#X connect 248 0 205 0;
#X connect 249 0 252 0;
#X connect 250 0 249 0;
#X connect 251 0 249 0;
#X connect 252 0 253 0;
#X connect 252 1 456 2;
#X connect 253 0 456 2;
#X connect 256 0 456 0;
#X connect 257 0 325 0;
#X connect 257 0 16 0;
#X connect 257 1 327 0;
#X connect 257 1 16 1;
#X connect 257 2 330 0;
#X connect 257 2 16 2;
#X connect 257 3 331 0;
#X connect 257 3 16 3;
#X connect 257 4 333 0;
#X connect 257 4 16 4;
#X connect 257 5 335 0;
#X connect 257 5 338 0;
#X connect 257 5 16 5;
#X connect 257 6 16 6;
#X connect 257 6 339 0;
#X connect 257 7 16 7;
#X connect 257 7 344 0;
#X connect 257 8 345 0;
#X connect 257 8 16 8;
#X connect 257 9 346 0;
#X connect 257 9 16 9;
#X connect 257 10 347 0;
#X connect 257 10 16 10;
#X connect 257 11 16 11;
#X connect 258 0 257 12;
#X connect 268 0 274 0;
#X connect 269 0 270 0;
#X connect 270 0 268 0;
#X connect 271 0 273 0;
#X connect 271 0 272 0;
#X connect 271 0 269 0;
#X connect 272 0 275 0;
#X connect 274 0 284 0;
#X connect 275 0 271 1;
#X connect 276 0 277 0;
#X connect 277 0 271 0;
#X connect 278 0 280 0;
#X connect 278 0 279 0;
#X connect 279 0 282 0;
#X connect 281 0 283 0;
#X connect 282 0 278 1;
#X connect 282 0 133 0;
#X connect 283 0 278 0;
#X connect 284 0 286 0;
#X connect 285 0 134 0;
#X connect 286 0 285 0;
#X connect 288 0 289 0;
#X connect 289 0 290 0;
#X connect 290 0 144 0;
#X connect 291 0 42 0;
#X connect 292 0 293 1;
#X connect 293 0 317 0;
#X connect 294 0 363 0;
#X connect 295 0 364 0;
#X connect 296 0 295 0;
#X connect 296 0 299 0;
#X connect 296 0 301 0;
#X connect 296 0 308 0;
#X connect 297 0 365 0;
#X connect 298 0 366 0;
#X connect 299 0 298 0;
#X connect 300 0 367 0;
#X connect 301 0 297 0;
#X connect 302 0 307 0;
#X connect 303 0 410 1;
#X connect 306 0 303 0;
#X connect 307 0 296 0;
#X connect 307 0 294 0;
#X connect 308 0 300 0;
#X connect 309 0 303 0;
#X connect 310 0 424 0;
#X connect 311 0 310 0;
#X connect 312 0 310 0;
#X connect 313 0 310 0;
#X connect 314 0 310 0;
#X connect 315 0 310 0;
#X connect 316 0 456 1;
#X connect 318 0 27 0;
#X connect 322 0 456 1;
#X connect 325 0 324 0;
#X connect 327 0 326 0;
#X connect 330 0 328 0;
#X connect 331 0 329 0;
#X connect 333 0 332 0;
#X connect 335 0 334 0;
#X connect 338 0 336 0;
#X connect 339 0 337 0;
#X connect 344 0 340 0;
#X connect 345 0 341 0;
#X connect 346 0 342 0;
#X connect 347 0 343 0;
#X connect 363 0 410 0;
#X connect 364 0 410 0;
#X connect 365 0 410 0;
#X connect 366 0 410 0;
#X connect 367 0 410 0;
#X connect 368 0 410 1;
#X connect 369 0 386 0;
#X connect 370 0 387 0;
#X connect 371 0 370 0;
#X connect 371 0 374 0;
#X connect 371 0 376 0;
#X connect 371 0 383 0;
#X connect 372 0 388 0;
#X connect 373 0 389 0;
#X connect 374 0 373 0;
#X connect 375 0 390 0;
#X connect 376 0 372 0;
#X connect 377 0 382 0;
#X connect 378 0 385 1;
#X connect 381 0 378 0;
#X connect 382 0 371 0;
#X connect 382 0 369 0;
#X connect 383 0 375 0;
#X connect 384 0 378 0;
#X connect 385 0 310 0;
#X connect 386 0 385 0;
#X connect 387 0 385 0;
#X connect 388 0 385 0;
#X connect 389 0 385 0;
#X connect 390 0 385 0;
#X connect 391 0 377 0;
#X connect 392 0 384 0;
#X connect 392 0 391 0;
#X connect 392 1 381 0;
#X connect 393 0 302 0;
#X connect 393 0 309 0;
#X connect 393 1 306 0;
#X connect 394 0 393 1;
#X connect 395 0 393 1;
#X connect 396 0 392 1;
#X connect 397 0 392 1;
#X connect 398 0 416 0;
#X connect 399 0 235 1;
#X connect 400 0 238 0;
#X connect 400 1 237 0;
#X connect 400 1 238 0;
#X connect 400 2 237 0;
#X connect 400 2 398 0;
#X connect 400 3 398 0;
#X connect 400 3 401 0;
#X connect 400 4 401 0;
#X connect 401 0 417 0;
#X connect 405 0 412 0;
#X connect 406 0 405 0;
#X connect 406 0 407 0;
#X connect 407 0 411 0;
#X connect 408 0 402 0;
#X connect 409 0 403 0;
#X connect 410 0 310 0;
#X connect 411 0 406 1;
#X connect 412 0 408 0;
#X connect 412 1 409 0;
#X connect 418 0 394 0;
#X connect 418 0 397 0;
#X connect 419 0 395 0;
#X connect 419 0 396 0;
#X connect 420 0 394 0;
#X connect 420 0 396 0;
#X connect 421 0 395 0;
#X connect 421 0 397 0;
#X connect 423 0 406 0;
#X connect 425 0 456 1;
#X connect 427 0 393 0;
#X connect 428 0 392 0;
#X connect 429 0 444 0;
#X connect 430 2 441 0;
#X connect 431 0 426 0;
#X connect 432 0 431 0;
#X connect 433 0 443 0;
#X connect 434 0 442 0;
#X connect 435 0 235 0;
#X connect 436 0 239 0;
#X connect 437 0 130 0;
#X connect 439 0 225 0;
#X connect 440 0 433 0;
#X connect 440 1 432 0;
#X connect 440 2 429 0;
#X connect 440 3 434 0;
#X connect 441 0 440 0;
#X connect 442 0 519 0;
#X connect 443 0 520 0;
#X connect 444 0 518 0;
#X connect 448 0 422 0;
#X connect 449 0 455 0;
#X connect 450 0 449 0;
#X connect 450 0 451 0;
#X connect 451 0 454 0;
#X connect 452 0 221 0;
#X connect 453 0 221 0;
#X connect 454 0 450 1;
#X connect 455 0 452 0;
#X connect 455 1 453 0;
#X connect 456 0 29 1;
#X connect 456 1 29 2;
#X connect 456 2 29 3;
#X connect 456 3 29 4;
#X connect 456 4 29 5;
#X connect 456 5 29 6;
#X connect 456 6 29 7;
#X connect 456 7 29 8;
#X connect 456 8 29 9;
#X connect 456 9 29 10;
#X connect 456 10 29 11;
#X connect 456 11 29 12;
#X connect 456 12 29 13;
#X connect 456 13 29 14;
#X connect 456 14 29 15;
#X connect 456 15 29 16;
#X connect 473 0 46 0;
#X connect 474 0 48 0;
#X connect 475 0 50 0;
#X connect 476 0 51 0;
#X connect 477 0 54 0;
#X connect 478 0 56 0;
#X connect 479 0 58 0;
#X connect 480 0 59 0;
#X connect 481 0 62 0;
#X connect 482 0 63 0;
#X connect 483 0 64 0;
#X connect 484 0 65 0;
#X connect 517 0 17 0;
#X connect 518 0 231 0;
#X connect 519 0 229 0;
#X connect 520 0 233 0;
