#N canvas 149 -810 908 690 10;
#X declare -lib iemgui -lib iem_ambi -lib iemlib -lib iemmatrix;
#X declare -lib oscx;
#X obj 64 357 loadbang;
#X obj 98 376 bng 15 250 50 0 empty empty empty 17 7 0 10 -262144 -1
-1;
#X obj 63 393 t b b b;
#X obj 1224 -115 import iemgui iem_ambi iemlib iemmatrix;
#X obj 361 -15 r \$0-to-GUI;
#X obj 361 136 s \$0-from-GUI;
#X obj 372 3 cube_sphere 0 60 40 1108 195567 241290 53 26;
#X obj 519 424 r \$0-from-GUI;
#X obj 519 449 route 1;
#X obj 520 472 unpack;
#X obj 600 461 r \$0-itime;
#X obj 521 531 pack 0 0;
#X obj 520 494 iemlib/speedlim 200;
#X text 680 602 Signal Inlet;
#N canvas 749 22 450 300 GUI_init 0;
#X obj 121 121 f \$0;
#X obj 117 91 bng 15 250 50 0 empty empty empty 17 7 0 10 -262144 -1
-1;
#X msg 124 144 \; \$1-to-GUI size 120 \; \$1-to-GUI src_font 40 \;
\$1-to-GUI sphere_col 27 \; \$1-to-GUI src_col 1 15;
#X obj 146 93 loadbang;
#X connect 0 0 2 0;
#X connect 1 0 0 0;
#X connect 3 0 0 0;
#X restore 1222 -65 pd GUI_init;
#X text 832 502 initialize argument1: interpolation time in (ms);
#X obj 989 832 dac~ 1 2 3 4 5 6 7 8 9 10 11 12;
#X obj 100 467 list prepend real_ls;
#X obj 101 494 list trim;
#X msg 85 520 begin_pseudo_inverse;
#X msg 73 543 end_pseudo_inverse;
#X text 235 583 Decoder:;
#X text 288 582 1stArg: ambi order;
#X text 287 596 2ndArg: 3D;
#X text 288 610 3rdArg: Nr of actual loudspeakers;
#X text 287 624 4thArg: Nr of phantom loudspeakers;
#X obj 668 508 osc~;
#X floatatom 668 487 5 0 0 0 - - -;
#X obj 521 582 ambi_encode 3;
#X obj 520 689 mtx_mul~ 16 16 0 ------------------------------------------
;
#X obj 102 586 ambi_decode3 3 3 16 4;
#X obj 102 638 print;
#X obj 101 614 round_zero 1e-06;
#X obj 604 423 iemlib/speedlim 200;
#X obj 484 567 print;
#X floatatom 709 486 5 0 0 0 - - -;
#X obj 709 508 * 0.01;
#X msg 709 465 34;
#X msg 667 465 329;
#X obj 819 264 bng 15 250 50 0 empty empty empty 0 -6 0 8 -262144 -1
-1;
#X msg 799 325 1;
#X msg 800 306 0;
#X obj 800 287 bangbang;
#X obj 797 366 readsf~ 1;
#X msg 798 345 open StarWarsThemeTune.wav;
#X obj 799 264 tgl 15 0 empty empty empty 17 7 0 10 -262144 -1 -1 0
1;
#X msg 99 422 1 0 45 \, 2 0 -45 \, 3 0 -135 \, 4 0 135 \, 5 45 0 \,
6 45 90 \, 7 45 180 \, 8 270 0 \, 9 -45 0 \, 10 -45 90 \, 11 -45 180
\, 12 -45 270 13 0 0 \, 14 0 90 \, 15 0 180 \, 16 0 270;
#X obj 797 388 *~ 0.2;
#X obj 727 562 *~ 0.3;
#X obj 694 527 *~;
#X obj 413 774 vu 15 120 empty empty -1 -8 0 10 -66577 -1 1 0;
#X obj 412 748 pvu~;
#X obj 459 774 vu 15 120 empty empty -1 -8 0 10 -66577 -1 1 0;
#X obj 458 748 pvu~;
#X obj 507 774 vu 15 120 empty empty -1 -8 0 10 -66577 -1 1 0;
#X obj 553 774 vu 15 120 empty empty -1 -8 0 10 -66577 -1 1 0;
#X obj 508 749 pvu~;
#X obj 554 749 pvu~;
#X obj 602 774 vu 15 120 empty empty -1 -8 0 10 -66577 -1 1 0;
#X obj 601 748 pvu~;
#X obj 648 774 vu 15 120 empty empty -1 -8 0 10 -66577 -1 1 0;
#X obj 647 748 pvu~;
#X obj 696 774 vu 15 120 empty empty -1 -8 0 10 -66577 -1 1 0;
#X obj 742 774 vu 15 120 empty empty -1 -8 0 10 -66577 -1 1 0;
#X obj 697 749 pvu~;
#X obj 743 749 pvu~;
#X obj 792 773 vu 15 120 empty empty -1 -8 0 10 -66577 -1 1 0;
#X obj 838 773 vu 15 120 empty empty -1 -8 0 10 -66577 -1 1 0;
#X obj 886 773 vu 15 120 empty empty -1 -8 0 10 -66577 -1 1 0;
#X obj 932 773 vu 15 120 empty empty -1 -8 0 10 -66577 -1 1 0;
#X obj 791 748 pvu~;
#X obj 837 748 pvu~;
#X obj 887 749 pvu~;
#X obj 933 749 pvu~;
#X text 411 901 1 LF 0;
#X text 456 900 2 RF 0;
#X text 598 900 5 FC 45;
#X text 646 900 6 L 45;
#X text 692 899 7 BC 45;
#X text 740 899 8 R 45;
#X text 789 899 9 FC 45;
#X text 834 898 10 L 45;
#X text 880 898 11 BC 45;
#X text 931 898 12 R 45;
#X text 410 919 Description Vu Meter Speaker placemnt: 1st Speaker
Number :2nd Speaker Position: 3rd Height in Degrees;
#X text 504 900 3 BR 0;
#X text 551 900 4 BL 0;
#X obj 1223 -89 import oscx;
#X obj 1346 221 unpack f f f;
#X floatatom 1348 241 5 0 0 0 - - -;
#X floatatom 1346 259 5 0 0 0 - - -;
#X floatatom 1345 279 5 0 0 0 - - -;
#X obj 981 217 unpack f f f;
#X floatatom 983 243 5 0 0 0 - - -;
#X floatatom 981 262 5 0 0 0 - - -;
#X floatatom 980 281 5 0 0 0 - - -;
#X obj 1268 221 unpack f f f;
#X floatatom 1268 244 5 0 0 0 - - -;
#X floatatom 1267 264 5 0 0 0 - - -;
#X floatatom 1265 282 5 0 0 0 - - -;
#X obj 1062 218 unpack f f f;
#X floatatom 1062 241 5 0 0 0 - - -;
#X floatatom 1061 261 5 0 0 0 - - -;
#X floatatom 1059 279 5 0 0 0 - - -;
#X obj 1242 466 unpack f f f;
#X floatatom 1242 492 5 0 0 0 - - -;
#X floatatom 1241 512 5 0 0 0 - - -;
#X floatatom 1239 530 5 0 0 0 - - -;
#X obj 1151 467 unpack f f f;
#X floatatom 1151 489 5 0 0 0 - - -;
#X floatatom 1150 509 5 0 0 0 - - -;
#X floatatom 1148 527 5 0 0 0 - - -;
#X obj 1248 370 unpack f f f;
#X floatatom 1248 402 5 0 0 0 - - -;
#X floatatom 1247 422 5 0 0 0 - - -;
#X floatatom 1245 440 5 0 0 0 - - -;
#X obj 1155 370 unpack f f f;
#X floatatom 1155 402 5 0 0 0 - - -;
#X floatatom 1154 422 5 0 0 0 - - -;
#X floatatom 1152 440 5 0 0 0 - - -;
#X obj 1161 188 unpack f f f;
#X floatatom 1162 210 5 0 0 0 - - -;
#X floatatom 1161 230 5 0 0 0 - - -;
#X floatatom 1159 248 5 0 0 0 - - -;
#X obj 1162 271 unpack f f f;
#X floatatom 1162 303 5 0 0 0 - - -;
#X floatatom 1161 323 5 0 0 0 - - -;
#X floatatom 1164 341 5 0 0 0 - - -;
#X text 973 326 Left Hand;
#X text 1057 297 Left Elbow;
#X text 1263 301 Right Hand;
#X text 1342 315 Right Elbow;
#X text 1164 161 Head;
#X text 1204 306 Torso;
#X text 1189 401 Left Knee;
#X text 1144 548 Left Foot;
#X text 1290 423 Right Knee;
#X text 1237 548 Right Foot;
#X obj 1026 92 route /righthand_pos_screen /lefthand_pos_screen /rightelbow_pos_screen
/leftelbow_pos_screen /rightfoot_pos_screen /leftfoot_pos_screen /rightknee_pos_screen
/leftknee_pos_screen /head_pos_screen /torso_pos_screen;
#X obj 543 244 pack;
#X obj 544 212 t b f;
#X floatatom 543 169 5 0 90 0 - - -;
#X floatatom 632 160 5 -720 720 0 - - -;
#X msg 510 265 \; to_GUI src_dp 1 \$1 \$2;
#X floatatom 588 190 5 0 90 0 - - -;
#X floatatom 651 191 5 -720 720 0 - - -;
#X obj 649 269 s from_GUI;
#X obj 599 242 pack 1 0 0;
#X obj 599 215 bang;
#X msg 676 159 set \$1;
#X obj 544 -70 vsl 15 128 0.4 0.6 0 0 empty empty empty 0 0 0 10 -262144
-1 -1 0 1;
#X obj 915 -84 vsl 15 128 0.6 0.1 0 0 empty empty empty 0 0 0 10 -262144
-1 -1 0 1;
#X obj 544 69 * 150;
#X obj 544 97 - 90;
#X obj 544 119 * 3;
#X obj 543 148 hid/hid_invert;
#X obj 171 60 unpack 0 0 0;
#X floatatom 171 93 5 0 0 0 - - -;
#X floatatom 205 93 5 0 0 0 - - -;
#X floatatom 241 120 5 0 0 0 - - -;
#X obj 240 92 hid/hid_invert;
#X floatatom 265 67 5 0 0 0 - - -;
#X floatatom 300 67 5 0 0 0 - - -;
#X obj 265 45 unpack;
#X text 306 44 source 1;
#X obj 265 21 route 1;
#X obj 361 156 s from_GUI;
#X obj 361 -40 r to_GUI;
#X obj 519 398 r from_GUI;
#X msg 772 470 0;
#X obj 1363 497 tgl 15 0 empty empty empty 17 7 0 10 -262144 -1 -1
1 1;
#X obj 1363 544 bng 15 250 50 0 empty empty empty 17 7 0 10 -262144
-1 -1;
#X obj 1363 471 loadbang;
#X obj 1363 519 metro 500;
#X msg 1261 760 disconnect;
#X obj 1215 800 tgl 15 0 empty empty 1=connected 20 8 0 8 -257985 -4160
-1 1 1;
#X obj 1217 779 mrpeach/udpsend;
#X obj 1189 721 loadbang;
#X obj 1218 691 mrpeach/packOSC;
#X msg 1189 743 connect 127.0.0.1 12346;
#X obj 1152 61 dumpOSC 12345;
#X msg 1363 571 send /righthand_trackjointpos 3;
#X msg 1363 593 send /lefthand_trackjointpos 3;
#X msg 1363 615 send /rightelbow_trackjointpos 3;
#X msg 1363 637 send /leftelbow_trackjointpos 3;
#X msg 1363 659 send /rightfoot_trackjointpos 3;
#X msg 1363 683 send /leftfoot_trackjointpos 3;
#X msg 1363 703 send /rightknee_trackjointpos 3;
#X msg 1363 725 send /leftknee_trackjointpos 3;
#X msg 1363 747 send /head_trackjointpos 3;
#X msg 1363 768 send /torso_trackjointpos 3;
#X msg 1363 791 send /leftshoulder_trackjointpos 3;
#X msg 1363 813 send /rightshoulder_trackjointpos 3;
#X obj 915 57 hid/hid_invert;
#X obj 940 -23 / 4000;
#X floatatom 941 29 5 0 0 0 - - -;
#X obj 915 109 + 36;
#X obj 940 2 * 3;
#X obj 915 82 * 360;
#X obj 940 -49 - 1000;
#X obj 1345 300 s RE;
#X obj 940 -86 r RE;
#X obj 782 -81 vsl 15 128 0.6 0.1 0 0 empty empty empty 0 0 0 10 -262144
-1 -1 0 1;
#X obj 807 -34 / 4000;
#X floatatom 808 18 5 0 0 0 - - -;
#X obj 807 -9 * 3;
#X obj 807 -55 - 1000;
#X obj 807 -83 r LE;
#X obj 980 305 s LE;
#X obj 858 -7 spigot;
#X floatatom 858 -29 5 0 0 0 - - -;
#X obj 858 17 tgl 15 0 empty empty empty 17 7 0 10 -262144 -1 -1 0
931.351;
#X obj 990 -4 spigot;
#X floatatom 990 -26 5 0 0 0 - - -;
#X obj 990 18 tgl 15 0 empty empty empty 17 7 0 10 -262144 -1 -1 0
439.656;
#X obj 782 60 * 360;
#X obj 781 84 - 36;
#X obj 989 -48 < 420;
#X obj 858 -55 < 420;
#X obj 569 -5 / 2250;
#X obj 568 46 hid/hid_invert;
#X obj 569 -29 -450;
#X obj 569 21 * 3;
#X obj 569 -52 spigot;
#X floatatom 569 -74 5 0 0 0 - - -;
#X obj 569 -100 < 420;
#X obj 675 -2 / 2250;
#X obj 674 49 hid/hid_invert;
#X obj 675 -26 -450;
#X obj 675 24 * 3;
#X obj 675 -49 spigot;
#X floatatom 675 -71 5 0 0 0 - - -;
#X obj 675 -97 < 420;
#X obj 866 418 tgl 15 0 empty empty empty 17 7 0 10 -262144 -1 -1 0
1;
#X obj 865 437 * 0.6;
#X obj 842 469 *~;
#X obj 829 437 pink~;
#X msg 1431 -34 devices;
#X floatatom 1492 89 5 0 0 0 - - -;
#X msg 1492 -33 open 6;
#X obj 1458 -2 comport 9600;
#X floatatom 1448 87 5 0 0 0 - - -;
#X floatatom 1572 87 5 0 0 0 - - -;
#X obj 1459 28 serialize 4;
#X obj 1459 54 unpack f f f f;
#X floatatom 1534 88 5 0 0 0 - - -;
#X text 1468 103 1;
#X text 1509 104 2;
#X text 1544 104 3;
#X text 1580 104 4;
#X obj 1452 163 spigot;
#X floatatom 1451 141 5 0 0 0 - - -;
#X obj 1452 188 bng 15 250 50 0 empty empty empty 17 7 0 10 -262144
-1 -1;
#X obj 1494 162 spigot;
#X floatatom 1494 140 5 0 0 0 - - -;
#X obj 1494 187 bng 15 250 50 0 empty empty empty 17 7 0 10 -262144
-1 -1;
#X obj 1532 163 spigot;
#X floatatom 1532 141 5 0 0 0 - - -;
#X obj 1531 120 < 255;
#X obj 1530 190 bng 15 250 50 0 empty empty empty 17 7 0 10 -262144
-1 -1;
#X obj 1572 166 spigot;
#X floatatom 1572 144 5 0 0 0 - - -;
#X obj 1571 123 < 255;
#X obj 1572 189 bng 15 250 50 0 empty empty empty 17 7 0 10 -262144
-1 -1;
#X obj 1452 259 hradio 15 1 0 8 empty empty empty 0 -8 0 10 -262144
-1 -1 0;
#X obj 1452 217 f;
#X obj 1477 217 + 1;
#X obj 1465 237 mod 8;
#X obj 1509 217 f;
#X obj 1521 238 mod 8;
#X obj 1533 217 - 1;
#X obj 1452 284 route 1 2 3 4 5 6 7 8;
#X obj 1472 311 tgl 15 0 empty empty empty 17 7 0 10 -262144 -1 -1
0 1;
#X obj 1493 311 tgl 15 0 empty empty empty 17 7 0 10 -262144 -1 -1
0 1;
#X obj 1513 311 tgl 15 0 empty empty empty 17 7 0 10 -262144 -1 -1
0 1;
#X obj 1532 311 tgl 15 0 empty empty empty 17 7 0 10 -262144 -1 -1
0 1;
#X obj 1551 311 tgl 15 0 empty empty empty 17 7 0 10 -262144 -1 -1
0 1;
#X obj 1571 311 tgl 15 0 empty empty empty 17 7 0 10 -262144 -1 -1
0 1;
#X obj 1452 312 tgl 15 0 empty empty empty 17 7 0 10 -262144 -1 -1
0 1;
#X obj 1450 120 < 248;
#X obj 1493 119 < 250;
#X obj 1426 332 s Pink;
#X obj 866 398 r Pink;
#X obj 941 260 s LE1;
#X obj 620 -98 r LE1;
#X obj 622 -73 r LE1;
#X obj 859 -86 r LE1;
#X obj 1385 262 s RE1;
#X obj 724 -72 r RE1;
#X obj 723 -98 r RE1;
#X obj 990 -82 r RE1;
#X obj 866 577 f \$1;
#X obj 866 541 loadbang;
#X obj 881 559 bng 15 250 50 0 empty empty empty 17 7 0 10 -262144
-1 -1;
#X obj 866 597 sel 0;
#X msg 866 618 200;
#X text 841 608 std:;
#X text 528 561 3nd order Ambisonics Encode;
#X obj 521 641 mtx_mul~ 16 1 200 ----------------------------------------
;
#X obj 521 611 mtx 16 1;
#N canvas 67 46 1174 701 volume 1;
#X obj -77 -315 inlet~;
#X obj -81 -260 outlet~;
#X obj -77 -286 *~ 0.707;
#X obj -19 -316 inlet~;
#X obj -23 -261 outlet~;
#X obj -19 -287 *~ 0.707;
#X obj 39 -316 inlet~;
#X obj 35 -261 outlet~;
#X obj 39 -287 *~ 0.707;
#X obj 97 -317 inlet~;
#X obj 93 -262 outlet~;
#X obj 97 -288 *~ 0.707;
#X obj 157 -318 inlet~;
#X obj 153 -263 outlet~;
#X obj 157 -289 *~ 0.707;
#X obj 215 -319 inlet~;
#X obj 211 -264 outlet~;
#X obj 215 -290 *~ 0.707;
#X obj 279 -321 inlet~;
#X obj 275 -266 outlet~;
#X obj 279 -292 *~ 0.707;
#X obj 337 -322 inlet~;
#X obj 333 -267 outlet~;
#X obj 337 -293 *~ 0.707;
#X obj 395 -322 inlet~;
#X obj 391 -267 outlet~;
#X obj 395 -293 *~ 0.707;
#X obj 453 -323 inlet~;
#X obj 449 -268 outlet~;
#X obj 453 -294 *~ 0.707;
#X obj 513 -324 inlet~;
#X obj 509 -269 outlet~;
#X obj 513 -295 *~ 0.707;
#X obj 571 -325 inlet~;
#X obj 567 -270 outlet~;
#X obj 571 -296 *~ 0.707;
#X obj 239 -447 inlet~;
#X connect 0 0 2 0;
#X connect 2 0 1 0;
#X connect 3 0 5 0;
#X connect 5 0 4 0;
#X connect 6 0 8 0;
#X connect 8 0 7 0;
#X connect 9 0 11 0;
#X connect 11 0 10 0;
#X connect 12 0 14 0;
#X connect 14 0 13 0;
#X connect 15 0 17 0;
#X connect 17 0 16 0;
#X connect 18 0 20 0;
#X connect 20 0 19 0;
#X connect 21 0 23 0;
#X connect 23 0 22 0;
#X connect 24 0 26 0;
#X connect 26 0 25 0;
#X connect 27 0 29 0;
#X connect 29 0 28 0;
#X connect 30 0 32 0;
#X connect 32 0 31 0;
#X connect 33 0 35 0;
#X connect 35 0 34 0;
#X restore 980 733 pd volume --------------------;
#X connect 0 0 2 0;
#X connect 1 0 2 0;
#X connect 2 0 20 0;
#X connect 2 1 19 0;
#X connect 2 2 46 0;
#X connect 4 0 6 0;
#X connect 6 0 5 0;
#X connect 6 0 156 0;
#X connect 6 0 166 0;
#X connect 7 0 8 0;
#X connect 8 0 9 0;
#X connect 9 0 12 0;
#X connect 9 1 33 0;
#X connect 10 0 12 1;
#X connect 10 0 33 1;
#X connect 11 0 28 0;
#X connect 11 0 34 0;
#X connect 12 0 11 0;
#X connect 17 0 18 0;
#X connect 18 0 30 0;
#X connect 19 0 30 0;
#X connect 20 0 30 0;
#X connect 26 0 49 0;
#X connect 27 0 26 0;
#X connect 28 0 299 0;
#X connect 29 0 51 0;
#X connect 29 0 300 0;
#X connect 29 1 53 0;
#X connect 29 1 300 1;
#X connect 29 2 56 0;
#X connect 29 2 300 2;
#X connect 29 3 57 0;
#X connect 29 3 300 3;
#X connect 29 4 59 0;
#X connect 29 4 300 4;
#X connect 29 5 61 0;
#X connect 29 5 300 5;
#X connect 29 6 64 0;
#X connect 29 6 300 7;
#X connect 29 7 65 0;
#X connect 29 7 300 8;
#X connect 29 8 70 0;
#X connect 29 8 300 9;
#X connect 29 9 71 0;
#X connect 29 9 300 10;
#X connect 29 10 72 0;
#X connect 29 10 300 11;
#X connect 29 11 73 0;
#X connect 29 11 300 12;
#X connect 30 0 29 0;
#X connect 30 0 32 0;
#X connect 32 0 31 0;
#X connect 33 0 11 1;
#X connect 35 0 36 0;
#X connect 36 0 49 1;
#X connect 37 0 35 0;
#X connect 38 0 27 0;
#X connect 39 0 42 0;
#X connect 40 0 43 0;
#X connect 41 0 43 0;
#X connect 42 0 40 0;
#X connect 42 1 44 0;
#X connect 43 0 47 0;
#X connect 44 0 43 0;
#X connect 45 0 42 0;
#X connect 46 0 17 0;
#X connect 51 0 50 0;
#X connect 53 0 52 0;
#X connect 56 0 54 0;
#X connect 57 0 55 0;
#X connect 59 0 58 0;
#X connect 61 0 60 0;
#X connect 64 0 62 0;
#X connect 65 0 63 0;
#X connect 70 0 66 0;
#X connect 71 0 67 0;
#X connect 72 0 68 0;
#X connect 73 0 69 0;
#X connect 88 0 89 0;
#X connect 88 1 90 0;
#X connect 88 2 91 0;
#X connect 90 0 287 0;
#X connect 91 0 200 0;
#X connect 92 0 93 0;
#X connect 92 1 94 0;
#X connect 92 2 95 0;
#X connect 94 0 283 0;
#X connect 95 0 208 0;
#X connect 96 0 97 0;
#X connect 96 1 98 0;
#X connect 96 2 99 0;
#X connect 100 0 101 0;
#X connect 100 1 102 0;
#X connect 100 2 103 0;
#X connect 104 0 105 0;
#X connect 104 1 106 0;
#X connect 104 2 107 0;
#X connect 108 0 109 0;
#X connect 108 1 110 0;
#X connect 108 2 111 0;
#X connect 112 0 113 0;
#X connect 112 1 114 0;
#X connect 112 2 115 0;
#X connect 116 0 117 0;
#X connect 116 1 118 0;
#X connect 116 2 119 0;
#X connect 120 0 121 0;
#X connect 120 1 122 0;
#X connect 120 2 123 0;
#X connect 124 0 125 0;
#X connect 124 1 126 0;
#X connect 124 2 127 0;
#X connect 138 0 88 0;
#X connect 138 1 92 0;
#X connect 138 2 96 0;
#X connect 138 3 100 0;
#X connect 138 4 104 0;
#X connect 138 5 108 0;
#X connect 138 6 112 0;
#X connect 138 7 116 0;
#X connect 138 8 120 0;
#X connect 138 9 124 0;
#X connect 139 0 143 0;
#X connect 140 0 139 0;
#X connect 140 1 139 1;
#X connect 141 0 139 0;
#X connect 141 0 144 0;
#X connect 142 0 140 0;
#X connect 142 0 145 0;
#X connect 144 0 148 0;
#X connect 144 0 147 1;
#X connect 145 0 147 2;
#X connect 145 0 148 0;
#X connect 147 0 146 0;
#X connect 148 0 147 0;
#X connect 149 0 142 0;
#X connect 150 0 152 0;
#X connect 151 0 193 0;
#X connect 152 0 153 0;
#X connect 153 0 154 0;
#X connect 154 0 155 0;
#X connect 155 0 141 0;
#X connect 156 0 157 0;
#X connect 156 1 158 0;
#X connect 156 2 160 0;
#X connect 160 0 159 0;
#X connect 162 0 160 0;
#X connect 163 0 161 0;
#X connect 163 1 162 0;
#X connect 165 0 163 0;
#X connect 167 0 6 0;
#X connect 168 0 8 0;
#X connect 169 0 27 0;
#X connect 169 0 35 0;
#X connect 170 0 173 0;
#X connect 171 0 181 0;
#X connect 172 0 170 0;
#X connect 173 0 171 0;
#X connect 174 0 176 0;
#X connect 176 0 175 0;
#X connect 177 0 179 0;
#X connect 178 0 176 0;
#X connect 179 0 176 0;
#X connect 180 0 138 0;
#X connect 181 0 182 0;
#X connect 181 0 178 0;
#X connect 182 0 183 0;
#X connect 182 0 178 0;
#X connect 183 0 184 0;
#X connect 183 0 178 0;
#X connect 184 0 185 0;
#X connect 184 0 178 0;
#X connect 185 0 186 0;
#X connect 185 0 178 0;
#X connect 186 0 187 0;
#X connect 186 0 178 0;
#X connect 187 0 188 0;
#X connect 187 0 178 0;
#X connect 188 0 189 0;
#X connect 188 0 178 0;
#X connect 189 0 190 0;
#X connect 189 0 178 0;
#X connect 190 0 191 0;
#X connect 190 0 178 0;
#X connect 191 0 192 0;
#X connect 191 0 178 0;
#X connect 192 0 178 0;
#X connect 193 0 198 0;
#X connect 194 0 197 0;
#X connect 196 0 142 0;
#X connect 197 0 195 0;
#X connect 197 0 151 0;
#X connect 198 0 196 0;
#X connect 199 0 194 0;
#X connect 201 0 212 0;
#X connect 202 0 215 0;
#X connect 203 0 205 0;
#X connect 205 0 204 0;
#X connect 205 0 202 0;
#X connect 206 0 203 0;
#X connect 207 0 209 0;
#X connect 209 0 211 0;
#X connect 209 0 206 0;
#X connect 210 0 209 1;
#X connect 212 0 214 0;
#X connect 212 0 199 0;
#X connect 213 0 212 1;
#X connect 215 0 216 0;
#X connect 216 0 142 0;
#X connect 217 0 213 0;
#X connect 218 0 210 0;
#X connect 219 0 222 0;
#X connect 220 0 150 0;
#X connect 221 0 219 0;
#X connect 222 0 220 0;
#X connect 223 0 221 0;
#X connect 224 0 223 1;
#X connect 225 0 224 0;
#X connect 226 0 229 0;
#X connect 227 0 150 0;
#X connect 228 0 226 0;
#X connect 229 0 227 0;
#X connect 230 0 228 0;
#X connect 231 0 230 1;
#X connect 232 0 231 0;
#X connect 233 0 234 0;
#X connect 234 0 235 1;
#X connect 235 0 298 1;
#X connect 236 0 235 0;
#X connect 237 0 240 0;
#X connect 238 0 280 0;
#X connect 239 0 240 0;
#X connect 240 0 243 0;
#X connect 241 0 279 0;
#X connect 242 0 262 0;
#X connect 243 0 244 0;
#X connect 244 0 238 0;
#X connect 244 1 241 0;
#X connect 244 2 242 0;
#X connect 244 3 245 0;
#X connect 245 0 258 0;
#X connect 250 0 252 0;
#X connect 251 0 250 1;
#X connect 251 0 250 0;
#X connect 252 0 265 0;
#X connect 253 0 255 0;
#X connect 254 0 253 1;
#X connect 254 0 253 0;
#X connect 255 0 268 0;
#X connect 256 0 259 0;
#X connect 257 0 256 1;
#X connect 257 0 256 0;
#X connect 258 0 257 0;
#X connect 260 0 263 0;
#X connect 261 0 260 1;
#X connect 261 0 260 0;
#X connect 262 0 261 0;
#X connect 264 0 271 0;
#X connect 265 0 264 0;
#X connect 265 0 266 0;
#X connect 266 0 267 0;
#X connect 267 0 265 1;
#X connect 268 0 270 0;
#X connect 268 0 264 0;
#X connect 269 0 268 1;
#X connect 270 0 269 0;
#X connect 271 0 278 0;
#X connect 271 1 272 0;
#X connect 271 1 278 0;
#X connect 271 2 273 0;
#X connect 271 2 272 0;
#X connect 271 3 274 0;
#X connect 271 3 273 0;
#X connect 271 4 275 0;
#X connect 271 4 274 0;
#X connect 271 5 276 0;
#X connect 271 5 275 0;
#X connect 271 6 276 0;
#X connect 271 6 277 0;
#X connect 278 0 281 0;
#X connect 279 0 251 0;
#X connect 280 0 254 0;
#X connect 282 0 233 0;
#X connect 284 0 225 0;
#X connect 285 0 223 0;
#X connect 286 0 218 0;
#X connect 288 0 230 0;
#X connect 289 0 232 0;
#X connect 290 0 217 0;
#X connect 291 0 294 0;
#X connect 292 0 291 0;
#X connect 293 0 291 0;
#X connect 294 0 295 0;
#X connect 294 1 298 2;
#X connect 295 0 298 2;
#X connect 298 0 29 1;
#X connect 298 1 29 2;
#X connect 298 2 29 3;
#X connect 298 3 29 4;
#X connect 298 4 29 5;
#X connect 298 5 29 6;
#X connect 298 6 29 7;
#X connect 298 7 29 8;
#X connect 298 8 29 9;
#X connect 298 9 29 10;
#X connect 298 10 29 11;
#X connect 298 11 29 12;
#X connect 298 12 29 13;
#X connect 298 13 29 14;
#X connect 298 14 29 15;
#X connect 298 15 29 16;
#X connect 299 0 298 0;
#X connect 300 0 16 0;
#X connect 300 1 16 1;
#X connect 300 2 16 2;
#X connect 300 3 16 3;
#X connect 300 4 16 4;
#X connect 300 5 16 5;
#X connect 300 6 16 6;
#X connect 300 7 16 7;
#X connect 300 8 16 8;
#X connect 300 9 16 9;
#X connect 300 10 16 10;
#X connect 300 11 16 11;
